<svg width="18" height="18" viewBox="0 0 18 18" fill="none" xmlns="http://www.w3.org/2000/svg">
<path d="M13.4158 8.17254C14.462 8.02554 15.2675 7.12854 15.2698 6.04179C15.2698 4.97079 14.489 4.08279 13.4653 3.91479" stroke="#A9ABAD" stroke-width="1.5" stroke-linecap="round" stroke-linejoin="round"/>
<path d="M14.7964 10.6877C15.8096 10.8392 16.5169 11.194 16.5169 11.9252C16.5169 12.4285 16.1839 12.7555 15.6454 12.961" stroke="#A9ABAD" stroke-width="1.5" stroke-linecap="round" stroke-linejoin="round"/>
<path fill-rule="evenodd" clip-rule="evenodd" d="M8.91493 10.9979C6.50443 10.9979 4.44568 11.3631 4.44568 12.8219C4.44568 14.2799 6.49168 14.6556 8.91493 14.6556C11.3254 14.6556 13.3834 14.2941 13.3834 12.8346C13.3834 11.3751 11.3382 10.9979 8.91493 10.9979Z" stroke="#A9ABAD" stroke-width="1.5" stroke-linecap="round" stroke-linejoin="round"/>
<path fill-rule="evenodd" clip-rule="evenodd" d="M8.91495 8.91594C10.4967 8.91594 11.7792 7.63419 11.7792 6.05169C11.7792 4.46994 10.4967 3.18744 8.91495 3.18744C7.3332 3.18744 6.05068 4.46994 6.05068 6.05169C6.0447 7.62819 7.31745 8.91069 8.89395 8.91594H8.91495Z" stroke="#A9ABAD" stroke-width="1.5" stroke-linecap="round" stroke-linejoin="round"/>
<path d="M4.41357 8.17254C3.36657 8.02554 2.56182 7.12854 2.55957 6.04179C2.55957 4.97079 3.34032 4.08279 4.36407 3.91479" stroke="#A9ABAD" stroke-width="1.5" stroke-linecap="round" stroke-linejoin="round"/>
<path d="M3.03288 10.6877C2.01963 10.8392 1.31238 11.194 1.31238 11.9252C1.31238 12.4285 1.64538 12.7555 2.18388 12.961" stroke="#A9ABAD" stroke-width="1.5" stroke-linecap="round" stroke-linejoin="round"/>
</svg>
