<svg xmlns="http://www.w3.org/2000/svg" width="18" height="18" viewBox="0 0 18 18" fill="none">
<path d="M9 15.2057V2.24573" stroke="#A9ABAD" stroke-width="1.44" stroke-linecap="round" stroke-linejoin="round"/>
<path d="M5.68481 8.75287C5.68481 7.95758 5.0401 7.31287 4.24481 7.31287C3.44952 7.31287 2.80481 7.95758 2.80481 8.75287C2.80481 9.54816 3.44952 10.1929 4.24481 10.1929C5.0401 10.1929 5.68481 9.54816 5.68481 8.75287Z" stroke="#A9ABAD" stroke-width="1.44"/>
<path d="M7.9397 8.75281H8.9999" stroke="#A9ABAD" stroke-width="1.44" stroke-linecap="round" stroke-linejoin="round"/>
<path d="M5.68481 8.75281H6.55194" stroke="#A9ABAD" stroke-width="1.44" stroke-linecap="round" stroke-linejoin="round"/>
<path d="M12.3152 5.02667C12.3152 4.23138 12.9599 3.58667 13.7552 3.58667C14.5505 3.58667 15.1952 4.23138 15.1952 5.02667C15.1952 5.82196 14.5505 6.46667 13.7552 6.46667C12.9599 6.46667 12.3152 5.82196 12.3152 5.02667Z" stroke="#A9ABAD" stroke-width="1.44"/>
<path d="M10.0603 5.02662L9.00012 5.02661" stroke="#A9ABAD" stroke-width="1.44" stroke-linecap="round" stroke-linejoin="round"/>
<path d="M12.3153 5.02662L11.4481 5.02661" stroke="#A9ABAD" stroke-width="1.44" stroke-linecap="round" stroke-linejoin="round"/>
<path d="M12.3152 12.4249C12.3152 11.6296 12.9599 10.9849 13.7552 10.9849C14.5505 10.9849 15.1952 11.6296 15.1952 12.4249C15.1952 13.2202 14.5505 13.8649 13.7552 13.8649C12.9599 13.8649 12.3152 13.2202 12.3152 12.4249Z" stroke="#A9ABAD" stroke-width="1.44"/>
<path d="M10.0603 12.4249H9.00012" stroke="#A9ABAD" stroke-width="1.44" stroke-linecap="round" stroke-linejoin="round"/>
<path d="M12.3153 12.4249H11.4481" stroke="#A9ABAD" stroke-width="1.44" stroke-linecap="round" stroke-linejoin="round"/>
</svg>