<svg width="18" height="18" viewBox="0 0 18 18" fill="none" xmlns="http://www.w3.org/2000/svg">
<path d="M8.08054 10.7054L3.15421 8.29756C2.10057 7.78261 2.10057 6.28131 3.15351 5.76639L7.85921 3.46644C8.4764 3.16451 9.19798 3.16451 9.81517 3.46644L14.5264 5.76849C15.5801 6.28341 15.5801 7.78542 14.5264 8.30029L9.81725 10.6017C9.19798 10.9043 8.47431 10.9043 7.85497 10.6017L4.86358 9.1396" stroke="#A9ABAD" stroke-width="1.44" stroke-linecap="round" stroke-linejoin="round"/>
<path d="M15.3239 7.02563L15.3 10.9236" stroke="#A9ABAD" stroke-width="1.44" stroke-linecap="round" stroke-linejoin="round"/>
<path d="M4.86426 9.14062V12.7198C4.86426 13.3363 5.22995 13.9038 5.79951 14.1392C7.79749 14.9637 9.78714 14.9742 11.769 14.144C12.3344 13.9072 12.6965 13.3412 12.6965 12.7282V9.20578" stroke="#A9ABAD" stroke-width="1.44" stroke-linecap="round" stroke-linejoin="round"/>
</svg>
