<svg width="18" height="18" viewBox="0 0 18 18" fill="none" xmlns="http://www.w3.org/2000/svg">
<path fill-rule="evenodd" clip-rule="evenodd" d="M7.19363 11.4052C9.96038 11.4052 12.3251 11.8244 12.3251 13.4992C12.3251 15.1739 9.97613 15.6052 7.19363 15.6052C4.42613 15.6052 2.06213 15.1897 2.06213 13.5142C2.06213 11.8387 4.41038 11.4052 7.19363 11.4052Z" stroke="#A9ABAD" stroke-width="1.5" stroke-linecap="round" stroke-linejoin="round"/>
<path fill-rule="evenodd" clip-rule="evenodd" d="M7.19367 9.01488C5.37717 9.01488 3.90417 7.54263 3.90417 5.72613C3.90417 3.90963 5.37717 2.43738 7.19367 2.43738C9.00942 2.43738 10.4824 3.90963 10.4824 5.72613C10.4892 7.53588 9.02667 9.00813 7.21692 9.01488H7.19367Z" stroke="#A9ABAD" stroke-width="1.5" stroke-linecap="round" stroke-linejoin="round"/>
<path d="M12.3623 8.16121C13.5631 7.99246 14.4878 6.96195 14.4901 5.7147C14.4901 4.48545 13.5938 3.46546 12.4186 3.27271" stroke="#A9ABAD" stroke-width="1.5" stroke-linecap="round" stroke-linejoin="round"/>
<path d="M13.9465 11.0492C15.1098 11.2224 15.922 11.6304 15.922 12.4704C15.922 13.0487 15.5395 13.4237 14.9215 13.6584" stroke="#A9ABAD" stroke-width="1.5" stroke-linecap="round" stroke-linejoin="round"/>
</svg>
